<svg width="21" height="21" viewBox="0 0 21 21" fill="none" xmlns="http://www.w3.org/2000/svg">
<path id="Vector" fill-rule="evenodd" clip-rule="evenodd" d="M17.8076 3.0448C15.8494 1.08337 13.2404 0.0031585 10.4641 0C4.74407 0 0.0852794 4.65563 0.0852794 10.3788C0.0852794 12.2076 0.562213 13.9953 1.47186 15.5683L0 20.9472L5.50211 19.5037C7.01819 20.3313 8.72378 20.7671 10.461 20.7671H10.4641C16.1842 20.7671 20.8398 16.1115 20.8429 10.3883C20.8461 7.61515 19.7691 5.00622 17.8076 3.0448ZM10.4673 19.0142H10.4641C8.91645 19.0142 7.39721 18.5973 6.0738 17.8108L5.75795 17.6244L2.49206 18.4804L3.3638 15.2966L3.1585 14.9713C2.29623 13.5973 1.83825 12.0118 1.83825 10.3788C1.84141 5.62213 5.71057 1.75297 10.4704 1.75297C12.7761 1.75297 14.9397 2.65314 16.5695 4.28293C18.1993 5.91271 19.0963 8.0826 19.0931 10.3851C19.0931 15.145 15.2208 19.0142 10.4673 19.0142ZM15.1987 12.5519C14.9397 12.4224 13.6637 11.7938 13.4268 11.7086C13.1899 11.6233 13.0162 11.5791 12.8425 11.8381C12.6687 12.0971 12.1729 12.6814 12.0213 12.8551C11.8696 13.0288 11.718 13.0509 11.459 12.9214C11.2 12.7919 10.363 12.5171 9.37443 11.6328C8.60376 10.9442 8.0826 10.0946 7.931 9.83557C7.77939 9.57658 7.9152 9.43444 8.0447 9.30494C8.16157 9.18808 8.3037 9.00173 8.4332 8.85012C8.5627 8.69851 8.60691 8.59112 8.69219 8.4174C8.77747 8.24369 8.73641 8.09208 8.67008 7.96258C8.60376 7.83308 8.08576 6.55705 7.87098 6.03589C7.65936 5.53053 7.44774 5.60002 7.28666 5.59055C7.13505 5.58423 6.96134 5.58107 6.79078 5.58107C6.61706 5.58107 6.33595 5.6474 6.09907 5.9064C5.86218 6.16539 5.19257 6.79393 5.19257 8.06997C5.19257 9.346 6.12117 10.581 6.25067 10.7515C6.38017 10.9253 8.07944 13.5437 10.682 14.6681C11.3011 14.9366 11.7844 15.0945 12.1602 15.2145C12.7825 15.4135 13.3478 15.3851 13.7932 15.3187C14.2922 15.2429 15.3282 14.6902 15.543 14.0869C15.7578 13.4805 15.7578 12.9625 15.6946 12.8551C15.6314 12.7477 15.4577 12.6845 15.1987 12.5519Z" fill="white"/>
</svg>
