<svg width="62" height="62" viewBox="0 0 62 62" fill="none" xmlns="http://www.w3.org/2000/svg">
<path d="M50.4599 12.7361C49.8592 12.1354 49.2585 11.5347 48.6577 10.9339C46.8556 9.01166 44.9333 7.08937 42.5304 5.88794C39.7672 4.44623 36.7636 4.80665 33.76 4.80665C29.1946 4.80665 17.781 4.80665 11.053 4.80665L15.6184 10.9339C23.9083 10.9339 36.8837 10.9339 42.8909 10.9339C45.4139 10.9339 47.5765 11.4145 49.6189 12.7361C49.9793 12.8562 50.3397 12.8562 50.4599 12.7361Z" fill="#66C61C"/>
<path d="M55.5051 22.5879C54.9044 21.9872 54.3037 21.3865 53.703 20.7857C51.9008 18.8635 49.9785 16.9412 47.5757 15.7397C44.8124 14.298 41.8088 14.6585 38.8052 14.6585C34.8405 14.6585 25.3492 14.6585 18.6212 14.6585L23.1867 20.7857C31.3564 20.7857 42.5297 20.7857 48.0563 20.7857C50.5793 20.7857 52.7418 21.2663 54.7843 22.5879C55.0246 22.708 55.2648 22.708 55.5051 22.5879Z" fill="#4CA30D"/>
<path d="M61.1527 32.1983C60.552 31.5975 59.9513 30.9968 59.3505 30.3961C57.5484 28.4738 55.6261 26.5515 53.2233 25.3501C50.46 23.9084 47.4564 24.2688 44.4528 24.2688C40.7284 24.2688 32.5587 24.2688 25.9508 24.2688L30.5162 30.3961C38.4457 30.3961 48.5377 30.3961 53.5837 30.3961C56.1067 30.3961 58.2693 30.8767 60.3117 32.1983C60.6721 32.3184 60.9124 32.4385 61.1527 32.1983Z" fill="#3B7C0F"/>
<path d="M10.572 48.419C11.1727 49.0197 11.7735 49.6204 12.3742 50.2211C14.1763 52.1434 16.0986 54.0657 18.5014 55.2671C21.2647 56.7088 24.2683 56.3484 27.2719 56.3484H49.9789L45.4135 50.2211C37.1236 50.2211 24.1482 50.2211 18.141 50.2211C15.618 50.2211 13.4555 49.7405 11.413 48.419C11.0526 48.2988 10.8123 48.2988 10.572 48.419Z" fill="#66C61C"/>
<path d="M5.52515 38.5672C6.12586 39.1679 6.72658 39.7686 7.32729 40.3693C9.12944 42.2916 11.0517 44.2139 13.4546 45.4153C16.2179 46.857 19.2214 46.4966 22.225 46.4966H42.409L37.8436 40.3693C29.6739 40.3693 18.5006 40.3693 12.974 40.3693C10.451 40.3693 8.28842 39.8887 6.24599 38.5672C6.00571 38.447 5.76543 38.447 5.52515 38.5672Z" fill="#4CA30D"/>
<path d="M-0.000488281 28.8355C0.600227 29.4362 1.20094 30.0369 1.80166 30.6376C3.6038 32.5599 5.5261 34.4822 7.92896 35.6836C10.6922 37.1253 13.6958 36.7649 16.6994 36.7649H35.2014L30.636 30.6376C22.7065 30.6376 12.6145 30.6376 7.56852 30.6376C5.04552 30.6376 2.88294 30.157 0.840509 28.8355C0.48008 28.7153 0.239798 28.7153 -0.000488281 28.8355Z" fill="#3B7C0F"/>
</svg>
