<svg width="56" height="51" viewBox="0 0 56 51" fill="none" xmlns="http://www.w3.org/2000/svg">
<path d="M56 50.504C37.3005 43.5475 18.6767 43.6326 0 50.576C1.86179 49.6175 3.72238 48.659 5.62855 47.6777C5.62855 42.2555 5.62855 36.7913 5.62855 31.2455C6.33752 30.954 7.04529 30.6625 7.87541 30.3206C7.87541 35.8628 7.87541 41.2898 7.87541 46.8104C8.62877 46.5693 9.27775 46.3833 9.90755 46.1434C10.0503 46.0894 10.1619 45.8603 10.2146 45.69C10.271 45.5052 10.247 45.2953 10.247 45.095C10.2422 40.167 10.2362 35.2378 10.2302 30.3098C10.229 29.5061 10.229 29.5049 10.956 29.2098C11.659 28.9243 12.3667 28.6496 13.0613 28.3437C13.4548 28.1697 13.8231 28.1661 14.2177 28.3257C16.5126 29.2578 18.8086 30.1875 21.1095 31.1064C21.5341 31.2755 21.5677 31.6006 21.5665 31.9797C21.5581 34.8731 21.5545 37.7666 21.5521 40.6588C21.5509 41.4374 21.5521 42.2147 21.5653 42.9932C21.5749 43.5355 21.6709 43.623 22.2083 43.5931C22.567 43.5727 22.9245 43.5271 23.2831 43.4947C23.9669 43.4323 24.0269 43.3735 24.0269 42.6957C24.0269 39.4232 24.0257 36.1507 24.0233 32.8794C24.0233 31.9821 24.0041 31.0836 24.0269 30.1863C24.0377 29.7328 23.8578 29.4761 23.4307 29.3513C23.1632 29.2734 22.9029 29.1678 22.6438 29.0646C21.8928 28.7671 21.8784 28.7491 21.8772 27.9226C21.8748 21.5779 21.876 15.232 21.8748 8.88725C21.8748 7.15142 21.87 5.41559 21.8688 3.67976C21.8676 2.84964 21.8676 2.84484 22.6138 2.54494C24.1889 1.91154 25.7591 1.26496 27.3474 0.667553C27.6521 0.553591 28.0744 0.533197 28.3719 0.650759C31.1778 1.7556 33.968 2.90242 36.7631 4.03245C38.1883 4.60826 39.6122 5.18887 41.0457 5.74309C41.462 5.90383 41.6227 6.14255 41.6203 6.59121C41.6023 9.06479 41.5963 11.5396 41.6191 14.0132C41.6239 14.499 41.4296 14.7305 41.0073 14.8997C37.8704 16.1473 34.7394 17.4081 31.606 18.6664C30.5312 19.0983 29.4659 19.5601 28.3767 19.9512C27.8584 20.1372 27.6701 20.4095 27.6737 20.9577C27.6965 23.6712 27.6833 26.3847 27.6833 29.0982C27.6845 33.5284 27.6845 37.9573 27.6881 42.3874C27.6893 43.262 27.7085 43.2776 28.6046 43.2872C29.0413 43.292 29.4767 43.2884 30.0441 43.2884C30.1041 36.1591 30.0225 29.0322 30.0825 21.8766C31.4921 21.3032 32.8692 20.743 34.3567 20.1372C34.3567 28.0174 34.3567 35.7884 34.3567 43.6086C35.0801 43.6962 35.7279 43.7994 36.3792 43.8342C36.5208 43.8414 36.7583 43.6338 36.8063 43.4791C36.8807 43.2428 36.8315 42.9669 36.8315 42.7077C36.8339 35.1658 36.8363 27.6227 36.8399 20.0808C36.8399 19.2471 36.8447 19.2542 37.6424 18.9364C38.7929 18.4781 39.9421 18.0175 41.0853 17.5388C41.5364 17.3505 41.9454 17.3409 42.4097 17.5304C45.7566 18.8968 49.1131 20.2427 52.4672 21.5911C53.3597 21.9498 53.3561 21.9438 53.3549 22.8771C53.3513 31.3175 53.3597 39.7579 53.3333 48.1971C53.3309 48.8845 53.566 49.2552 54.1682 49.5251C54.798 49.8082 55.3906 50.1741 56 50.504Z" fill="#F89D28"/>
<path d="M5.62891 31.2457V47.6779C6.39872 47.339 6.85093 47.1445 7.87577 46.8106V30.3208L7.82925 30.34C7.01912 30.6736 6.32459 30.9597 5.62891 31.2457Z" fill="black"/>
<path d="M30.0823 21.8766C30.0223 29.0323 30.1039 36.1591 30.0439 43.2884C31.7368 43.3206 32.68 43.4009 34.3565 43.6087V20.1372C32.9107 20.726 31.5692 21.2718 30.2008 21.8284L30.0823 21.8766Z" fill="black"/>
<path d="M19.207 27.7906C17.4064 27.0612 15.733 26.3835 14.0439 25.6985C14.0439 19.0815 14.0439 12.5112 14.0439 5.899C15.7474 5.20922 17.4376 4.52305 19.207 3.80688C19.207 11.8215 19.207 19.7424 19.207 27.7906Z" fill="black"/>
</svg>
