<svg width="255" height="62" viewBox="0 0 255 62" fill="none" xmlns="http://www.w3.org/2000/svg">
<path d="M50.4599 12.7361C49.8592 12.1354 49.2585 11.5347 48.6577 10.9339C46.8556 9.01166 44.9333 7.08937 42.5304 5.88794C39.7672 4.44623 36.7636 4.80665 33.76 4.80665C29.1946 4.80665 17.781 4.80665 11.053 4.80665L15.6184 10.9339C23.9083 10.9339 36.8837 10.9339 42.8909 10.9339C45.4139 10.9339 47.5765 11.4145 49.6189 12.7361C49.9793 12.8562 50.3397 12.8562 50.4599 12.7361Z" fill="#66C61C"/>
<path d="M55.5051 22.5879C54.9044 21.9872 54.3037 21.3865 53.703 20.7857C51.9008 18.8635 49.9785 16.9412 47.5757 15.7397C44.8124 14.298 41.8088 14.6585 38.8052 14.6585C34.8405 14.6585 25.3492 14.6585 18.6212 14.6585L23.1867 20.7857C31.3564 20.7857 42.5297 20.7857 48.0563 20.7857C50.5793 20.7857 52.7418 21.2663 54.7843 22.5879C55.0246 22.708 55.2648 22.708 55.5051 22.5879Z" fill="#4CA30D"/>
<path d="M61.1527 32.1983C60.552 31.5975 59.9513 30.9968 59.3505 30.3961C57.5484 28.4738 55.6261 26.5515 53.2233 25.3501C50.46 23.9084 47.4564 24.2688 44.4528 24.2688C40.7284 24.2688 32.5587 24.2688 25.9508 24.2688L30.5162 30.3961C38.4457 30.3961 48.5377 30.3961 53.5837 30.3961C56.1067 30.3961 58.2693 30.8767 60.3117 32.1983C60.6721 32.3184 60.9124 32.4385 61.1527 32.1983Z" fill="#3B7C0F"/>
<path d="M10.572 48.419C11.1727 49.0197 11.7735 49.6204 12.3742 50.2211C14.1763 52.1434 16.0986 54.0657 18.5014 55.2671C21.2647 56.7088 24.2683 56.3484 27.2719 56.3484H49.9789L45.4135 50.2211C37.1236 50.2211 24.1482 50.2211 18.141 50.2211C15.618 50.2211 13.4555 49.7405 11.413 48.419C11.0526 48.2988 10.8123 48.2988 10.572 48.419Z" fill="#66C61C"/>
<path d="M5.52515 38.5672C6.12586 39.1679 6.72658 39.7686 7.32729 40.3693C9.12944 42.2916 11.0517 44.2139 13.4546 45.4153C16.2179 46.857 19.2214 46.4966 22.225 46.4966H42.409L37.8436 40.3693C29.6739 40.3693 18.5006 40.3693 12.974 40.3693C10.451 40.3693 8.28842 39.8887 6.24599 38.5672C6.00571 38.447 5.76543 38.447 5.52515 38.5672Z" fill="#4CA30D"/>
<path d="M-0.000488281 28.8355C0.600227 29.4362 1.20094 30.0369 1.80166 30.6376C3.6038 32.5599 5.5261 34.4822 7.92896 35.6836C10.6922 37.1253 13.6958 36.7649 16.6994 36.7649H35.2014L30.636 30.6376C22.7065 30.6376 12.6145 30.6376 7.56852 30.6376C5.04552 30.6376 2.88294 30.157 0.840509 28.8355C0.48008 28.7153 0.239798 28.7153 -0.000488281 28.8355Z" fill="#3B7C0F"/>
<path d="M84.4486 44.0027V19.2067H101.883V24.6308H91.1803V28.8926H100.818V34.3168H91.1803V44.0027H84.4486ZM109.239 44.2933C108.052 44.2933 107.003 44.0995 106.091 43.7121C105.187 43.3166 104.476 42.7193 103.96 41.9202C103.443 41.1211 103.185 40.1041 103.185 38.8691C103.185 37.8521 103.358 36.9844 103.705 36.2661C104.052 35.5396 104.537 34.9463 105.158 34.4863C105.78 34.0262 106.502 33.6751 107.326 33.4329C108.157 33.1908 109.053 33.0334 110.013 32.9607C111.055 32.88 111.89 32.7832 112.52 32.6702C113.157 32.5491 113.617 32.3836 113.9 32.1738C114.182 31.9558 114.324 31.6693 114.324 31.3141V31.2657C114.324 30.7814 114.138 30.4101 113.767 30.1518C113.395 29.8935 112.919 29.7644 112.338 29.7644C111.7 29.7644 111.18 29.9056 110.776 30.1881C110.381 30.4626 110.143 30.8863 110.062 31.4594H103.911C103.992 30.3294 104.351 29.2882 104.989 28.3357C105.635 27.3752 106.575 26.6084 107.81 26.0353C109.045 25.4541 110.586 25.1636 112.435 25.1636C113.767 25.1636 114.961 25.321 116.019 25.6358C117.076 25.9425 117.976 26.3743 118.719 26.9312C119.461 27.4801 120.026 28.1258 120.414 28.8684C120.809 29.6029 121.007 30.402 121.007 31.2657V44.0027H114.759V41.3875H114.614C114.243 42.0816 113.791 42.6426 113.258 43.0704C112.734 43.4982 112.132 43.809 111.454 44.0027C110.784 44.1964 110.046 44.2933 109.239 44.2933ZM111.418 40.0799C111.926 40.0799 112.403 39.975 112.847 39.7651C113.299 39.5552 113.666 39.2525 113.948 38.857C114.231 38.4615 114.372 37.9813 114.372 37.4163V35.8665C114.194 35.9392 114.005 36.0078 113.803 36.0723C113.609 36.1369 113.399 36.1974 113.173 36.2539C112.955 36.3104 112.721 36.3629 112.471 36.4113C112.229 36.4598 111.975 36.5042 111.708 36.5445C111.192 36.6252 110.768 36.7584 110.437 36.9441C110.114 37.1216 109.872 37.3436 109.711 37.61C109.557 37.8683 109.481 38.1588 109.481 38.4817C109.481 38.9983 109.662 39.3938 110.025 39.6682C110.389 39.9427 110.853 40.0799 111.418 40.0799ZM130.884 33.5419V44.0027H124.2V19.2067H130.641V28.9411H130.835C131.255 27.7546 131.953 26.8304 132.93 26.1685C133.906 25.4985 135.081 25.1636 136.453 25.1636C137.769 25.1636 138.911 25.4622 139.879 26.0595C140.856 26.6568 141.611 27.4801 142.143 28.5294C142.684 29.5787 142.951 30.7814 142.942 32.1374V44.0027H136.259V33.5419C136.267 32.6217 136.037 31.8993 135.569 31.3747C135.109 30.85 134.451 30.5877 133.596 30.5877C133.055 30.5877 132.579 30.7088 132.167 30.9509C131.763 31.185 131.449 31.524 131.223 31.9679C131.005 32.4038 130.892 32.9284 130.884 33.5419ZM146.242 44.0027V25.4057H152.731V28.9411H152.925C153.264 27.6335 153.801 26.677 154.535 26.0716C155.278 25.4663 156.146 25.1636 157.138 25.1636C157.429 25.1636 157.716 25.1878 157.998 25.2362C158.289 25.2766 158.567 25.3371 158.833 25.4178V31.1204C158.503 31.0074 158.095 30.9227 157.611 30.8662C157.126 30.8097 156.711 30.7814 156.364 30.7814C155.71 30.7814 155.121 30.9307 154.596 31.2294C154.079 31.52 153.672 31.9316 153.373 32.4643C153.074 32.989 152.925 33.6065 152.925 34.3168V44.0027H146.242ZM168.919 44.3417C166.901 44.3417 165.174 43.9421 163.737 43.1431C162.3 42.3359 161.198 41.2139 160.432 39.7772C159.665 38.3324 159.281 36.6575 159.281 34.7526C159.281 32.8477 159.665 31.1769 160.432 29.7402C161.198 28.2953 162.3 27.1734 163.737 26.3743C165.174 25.5671 166.901 25.1636 168.919 25.1636C170.743 25.1636 172.321 25.4945 173.653 26.1564C174.993 26.8102 176.03 27.7384 176.765 28.9411C177.499 30.1357 177.87 31.5401 177.878 33.1545H171.679C171.591 32.1778 171.308 31.4352 170.832 30.9267C170.364 30.4101 169.758 30.1518 169.016 30.1518C168.435 30.1518 167.926 30.3213 167.49 30.6603C167.054 30.9913 166.715 31.4957 166.473 32.1738C166.231 32.8437 166.11 33.6872 166.11 34.7042C166.11 35.7212 166.231 36.5687 166.473 37.2468C166.715 37.9167 167.054 38.4212 167.49 38.7602C167.926 39.0911 168.435 39.2566 169.016 39.2566C169.508 39.2566 169.944 39.1436 170.323 38.9176C170.703 38.6835 171.009 38.3445 171.244 37.9006C171.486 37.4485 171.631 36.8997 171.679 36.2539H177.878C177.854 37.8925 177.479 39.3212 176.752 40.54C176.026 41.7507 174.997 42.687 173.665 43.3489C172.341 44.0108 170.759 44.3417 168.919 44.3417ZM187.319 33.5419V44.0027H180.636V19.2067H187.077V28.9411H187.271C187.69 27.7546 188.389 26.8304 189.365 26.1685C190.342 25.4985 191.516 25.1636 192.889 25.1636C194.204 25.1636 195.346 25.4622 196.315 26.0595C197.292 26.6568 198.046 27.4801 198.579 28.5294C199.12 29.5787 199.386 30.7814 199.378 32.1374V44.0027H192.695V33.5419C192.703 32.6217 192.473 31.8993 192.005 31.3747C191.545 30.85 190.887 30.5877 190.031 30.5877C189.49 30.5877 189.014 30.7088 188.603 30.9509C188.199 31.185 187.884 31.524 187.658 31.9679C187.44 32.4038 187.327 32.9284 187.319 33.5419ZM214.736 35.8665V25.4057H221.42V44.0027H215.075V40.4673H214.882C214.478 41.6538 213.772 42.5821 212.763 43.252C211.754 43.9139 210.555 44.2448 209.167 44.2448C207.867 44.2448 206.729 43.9462 205.753 43.3489C204.784 42.7516 204.029 41.9283 203.489 40.879C202.956 39.8297 202.685 38.627 202.677 37.271V25.4057H209.361V35.8665C209.369 36.7867 209.603 37.5091 210.063 38.0337C210.531 38.5584 211.185 38.8207 212.024 38.8207C212.581 38.8207 213.061 38.7037 213.465 38.4696C213.877 38.2275 214.192 37.8884 214.409 37.4526C214.635 37.0086 214.744 36.48 214.736 35.8665ZM231.502 19.2067V44.0027H224.819V19.2067H231.502ZM243.818 44.3417C241.833 44.3417 240.122 43.9623 238.685 43.2036C237.256 42.4368 236.154 41.3391 235.379 39.9104C234.613 38.4736 234.229 36.7544 234.229 34.7526C234.229 32.8316 234.617 31.1527 235.392 29.716C236.166 28.2792 237.26 27.1613 238.673 26.3622C240.085 25.5631 241.752 25.1636 243.673 25.1636C245.077 25.1636 246.349 25.3815 247.487 25.8174C248.625 26.2532 249.598 26.8869 250.405 27.7182C251.212 28.5415 251.833 29.5424 252.269 30.7209C252.705 31.8993 252.923 33.2271 252.923 34.7042V36.2539H236.312V32.5733H246.773C246.764 32.0406 246.627 31.5724 246.361 31.1688C246.103 30.7572 245.751 30.4384 245.308 30.2124C244.872 29.9783 244.375 29.8612 243.818 29.8612C243.278 29.8612 242.781 29.9783 242.329 30.2124C241.877 30.4384 241.514 30.7532 241.239 31.1567C240.973 31.5603 240.832 32.0325 240.816 32.5733V36.5445C240.816 37.1418 240.941 37.6745 241.191 38.1427C241.441 38.6109 241.8 38.9781 242.269 39.2445C242.737 39.5108 243.302 39.644 243.964 39.644C244.424 39.644 244.843 39.5794 245.223 39.4503C245.61 39.3212 245.941 39.1355 246.216 38.8934C246.49 38.6431 246.692 38.3445 246.821 37.9974H252.923C252.713 39.2889 252.217 40.4108 251.434 41.3633C250.651 42.3076 249.614 43.0422 248.322 43.5668C247.039 44.0834 245.538 44.3417 243.818 44.3417Z" fill="black"/>
</svg>
