<svg width="160" height="39" viewBox="0 0 160 39" fill="none" xmlns="http://www.w3.org/2000/svg">
<path d="M31.6059 7.97711C31.2297 7.60085 30.8534 7.22458 30.4772 6.84832C29.3484 5.64428 28.1443 4.44024 26.6393 3.68771C24.9085 2.78468 23.0272 3.01043 21.1458 3.01043C18.2862 3.01043 11.1372 3.01043 6.9231 3.01043L9.7827 6.84832C14.9751 6.84832 23.1024 6.84832 26.865 6.84832C28.4453 6.84832 29.7999 7.14933 31.0792 7.97711C31.3049 8.05236 31.5307 8.05236 31.6059 7.97711Z" fill="#DBE9FE"/>
<path d="M34.7661 14.148C34.3899 13.7717 34.0136 13.3955 33.6373 13.0192C32.5085 11.8152 31.3045 10.6111 29.7995 9.8586C28.0686 8.95557 26.1873 9.18134 24.306 9.18134C21.8227 9.18134 15.8777 9.18134 11.6636 9.18134L14.5232 13.0192C19.6404 13.0192 26.6388 13.0192 30.1005 13.0192C31.6808 13.0192 33.0353 13.3202 34.3146 14.148C34.4651 14.2233 34.6156 14.2233 34.7661 14.148Z" fill="#B1FF7D"/>
<path d="M38.3035 20.1673C37.9273 19.791 37.551 19.4148 37.1747 19.0385C36.0459 17.8345 34.8419 16.6304 33.3369 15.8779C31.606 14.9749 29.7247 15.2006 27.8434 15.2006C25.5106 15.2006 20.3934 15.2006 16.2545 15.2006L19.1141 19.0385C24.0808 19.0385 30.402 19.0385 33.5626 19.0385C35.1429 19.0385 36.4975 19.3395 37.7768 20.1673C38.0025 20.2426 38.153 20.3178 38.3035 20.1673Z" fill="#5DC219"/>
<path d="M6.62183 30.3277C6.99809 30.7039 7.37435 31.0802 7.75062 31.4565C8.8794 32.6605 10.0834 33.8645 11.5885 34.6171C13.3193 35.5201 15.2006 35.2943 17.0819 35.2943H31.3047L28.4451 31.4565C23.2527 31.4565 15.1254 31.4565 11.3627 31.4565C9.78244 31.4565 8.42789 31.1555 7.14859 30.3277C6.92283 30.2524 6.77233 30.2524 6.62183 30.3277Z" fill="#DBE9FE"/>
<path d="M3.46069 24.157C3.83696 24.5333 4.21322 24.9096 4.58948 25.2858C5.71827 26.4899 6.92231 27.6939 8.42736 28.4464C10.1582 29.3495 12.0395 29.1237 13.9208 29.1237H26.5632L23.7036 25.2858C18.5865 25.2858 11.588 25.2858 8.12635 25.2858C6.54605 25.2858 5.1915 24.9848 3.9122 24.157C3.7617 24.0818 3.6112 24.0818 3.46069 24.157Z" fill="#B1FF7D"/>
<path d="M-0.000244141 18.0613C0.376019 18.4376 0.752282 18.8138 1.12854 19.1901C2.25733 20.3942 3.46138 21.5982 4.96643 22.3507C6.69724 23.2538 8.57855 23.028 10.4599 23.028H22.0488L19.1892 19.1901C14.2225 19.1901 7.90128 19.1901 4.74067 19.1901C3.16037 19.1901 1.80582 18.8891 0.526522 18.0613C0.300764 17.9861 0.150261 17.9861 -0.000244141 18.0613Z" fill="#5DC219"/>
<path d="M53.0283 27.8918V12.3607H63.9487V15.7581H57.2448V18.4275H63.2813V21.825H57.2448V27.8918H53.0283ZM68.5557 28.0739C67.8125 28.0739 67.1553 27.9525 66.584 27.7098C66.0177 27.4621 65.5728 27.088 65.2492 26.5875C64.9257 26.087 64.7639 25.4499 64.7639 24.6764C64.7639 24.0394 64.8726 23.4959 65.09 23.0459C65.3074 22.5909 65.6107 22.2193 66 21.9312C66.3893 21.643 66.8418 21.4231 67.3575 21.2714C67.8782 21.1197 68.4394 21.0211 69.041 20.9756C69.6932 20.9251 70.2165 20.8644 70.6108 20.7936C71.0102 20.7178 71.2984 20.6141 71.4754 20.4827C71.6523 20.3462 71.7408 20.1667 71.7408 19.9443V19.9139C71.7408 19.6106 71.6245 19.378 71.3919 19.2162C71.1594 19.0545 70.8611 18.9736 70.4971 18.9736C70.0977 18.9736 69.7716 19.062 69.5188 19.239C69.2711 19.4109 69.1219 19.6763 69.0714 20.0353H65.2189C65.2695 19.3275 65.4945 18.6753 65.8939 18.0787C66.2983 17.4771 66.8873 16.9968 67.6608 16.6378C68.4343 16.2738 69.4 16.0918 70.5578 16.0918C71.3919 16.0918 72.1402 16.1904 72.8025 16.3876C73.4648 16.5797 74.0285 16.8502 74.4936 17.199C74.9588 17.5428 75.3127 17.9473 75.5553 18.4124C75.8031 18.8724 75.9269 19.373 75.9269 19.9139V27.8918H72.0138V26.2538H71.9228C71.6902 26.6886 71.4071 27.04 71.0734 27.3079C70.7448 27.5759 70.3682 27.7705 69.9435 27.8918C69.5239 28.0132 69.0613 28.0739 68.5557 28.0739ZM69.9207 25.4348C70.2392 25.4348 70.5375 25.369 70.8156 25.2376C71.0987 25.1061 71.3287 24.9166 71.5057 24.6688C71.6826 24.4211 71.7711 24.1203 71.7711 23.7664V22.7957C71.6599 22.8412 71.5411 22.8842 71.4147 22.9246C71.2934 22.9651 71.1619 23.003 71.0203 23.0384C70.8838 23.0737 70.7372 23.1066 70.5805 23.1369C70.4288 23.1673 70.2696 23.1951 70.1027 23.2204C69.7792 23.2709 69.5137 23.3543 69.3065 23.4706C69.1042 23.5818 68.9526 23.7209 68.8514 23.8877C68.7554 24.0495 68.7074 24.2315 68.7074 24.4337C68.7074 24.7573 68.8211 25.005 69.0486 25.1769C69.2761 25.3488 69.5668 25.4348 69.9207 25.4348ZM82.1132 21.3396V27.8918H77.9271V12.3607H81.9615V18.4579H82.0829C82.3458 17.7147 82.7831 17.1358 83.3948 16.7212C84.0066 16.3016 84.7422 16.0918 85.6017 16.0918C86.4257 16.0918 87.1411 16.2789 87.7478 16.653C88.3596 17.0271 88.8323 17.5428 89.1659 18.2C89.5047 18.8573 89.6715 19.6106 89.6665 20.4599V27.8918H85.4803V21.3396C85.4854 20.7633 85.3413 20.3108 85.0481 19.9822C84.7599 19.6536 84.3478 19.4892 83.8119 19.4892C83.4732 19.4892 83.1749 19.5651 82.9171 19.7168C82.6643 19.8634 82.4671 20.0757 82.3256 20.3538C82.1891 20.6268 82.1183 20.9554 82.1132 21.3396ZM91.733 27.8918V16.2435H95.7978V18.4579H95.9191C96.1315 17.6389 96.4677 17.0398 96.9277 16.6606C97.3929 16.2814 97.9363 16.0918 98.5582 16.0918C98.7402 16.0918 98.9197 16.107 99.0966 16.1373C99.2786 16.1626 99.4531 16.2005 99.6199 16.2511V19.8229C99.4126 19.7521 99.1573 19.6991 98.854 19.6637C98.5506 19.6283 98.2902 19.6106 98.0729 19.6106C97.6633 19.6106 97.2943 19.7041 96.9657 19.8912C96.6421 20.0732 96.3868 20.331 96.1997 20.6647C96.0126 20.9933 95.9191 21.3801 95.9191 21.825V27.8918H91.733ZM105.937 28.1042C104.673 28.1042 103.591 27.8539 102.691 27.3534C101.791 26.8478 101.101 26.1451 100.621 25.2452C100.141 24.3402 99.9005 23.2911 99.9005 22.098C99.9005 20.9048 100.141 19.8583 100.621 18.9584C101.101 18.0534 101.791 17.3507 102.691 16.8502C103.591 16.3446 104.673 16.0918 105.937 16.0918C107.08 16.0918 108.068 16.2991 108.902 16.7137C109.741 17.1232 110.391 17.7046 110.851 18.4579C111.311 19.2061 111.544 20.0858 111.549 21.097H107.666C107.61 20.4852 107.434 20.0201 107.135 19.7016C106.842 19.378 106.463 19.2162 105.998 19.2162C105.634 19.2162 105.315 19.3224 105.042 19.5347C104.769 19.742 104.557 20.058 104.405 20.4827C104.253 20.9023 104.178 21.4306 104.178 22.0677C104.178 22.7047 104.253 23.2355 104.405 23.6602C104.557 24.0798 104.769 24.3958 105.042 24.6082C105.315 24.8154 105.634 24.9191 105.998 24.9191C106.306 24.9191 106.579 24.8483 106.817 24.7067C107.054 24.5601 107.246 24.3478 107.393 24.0697C107.545 23.7866 107.636 23.4428 107.666 23.0384H111.549C111.534 24.0647 111.299 24.9595 110.844 25.7229C110.389 26.4813 109.744 27.0678 108.91 27.4823C108.081 27.8969 107.09 28.1042 105.937 28.1042ZM117.462 21.3396V27.8918H113.276V12.3607H117.31V18.4579H117.432C117.695 17.7147 118.132 17.1358 118.744 16.7212C119.356 16.3016 120.091 16.0918 120.951 16.0918C121.775 16.0918 122.49 16.2789 123.097 16.653C123.708 17.0271 124.181 17.5428 124.515 18.2C124.854 18.8573 125.02 19.6106 125.015 20.4599V27.8918H120.829V21.3396C120.834 20.7633 120.69 20.3108 120.397 19.9822C120.109 19.6536 119.697 19.4892 119.161 19.4892C118.822 19.4892 118.524 19.5651 118.266 19.7168C118.013 19.8634 117.816 20.0757 117.674 20.3538C117.538 20.6268 117.467 20.9554 117.462 21.3396ZM134.635 22.7957V16.2435H138.821V27.8918H134.847V25.6774H134.726C134.473 26.4206 134.031 27.002 133.399 27.4217C132.767 27.8362 132.016 28.0435 131.147 28.0435C130.333 28.0435 129.62 27.8565 129.008 27.4823C128.401 27.1082 127.929 26.5925 127.59 25.9353C127.256 25.278 127.087 24.5247 127.082 23.6754V16.2435H131.268V22.7957C131.273 23.372 131.42 23.8245 131.708 24.1531C132.001 24.4818 132.411 24.6461 132.936 24.6461C133.285 24.6461 133.586 24.5728 133.839 24.4262C134.097 24.2745 134.294 24.0621 134.43 23.7891C134.572 23.5111 134.64 23.1799 134.635 22.7957ZM145.137 12.3607V27.8918H140.95V12.3607H145.137ZM152.851 28.1042C151.607 28.1042 150.535 27.8666 149.635 27.3913C148.741 26.911 148.05 26.2235 147.565 25.3286C147.085 24.4287 146.845 23.3518 146.845 22.098C146.845 20.8947 147.087 19.8431 147.573 18.9432C148.058 18.0433 148.743 17.3431 149.628 16.8426C150.513 16.3421 151.557 16.0918 152.76 16.0918C153.64 16.0918 154.436 16.2283 155.149 16.5013C155.862 16.7743 156.471 17.1712 156.976 17.6919C157.482 18.2076 157.871 18.8345 158.144 19.5727C158.417 20.3108 158.554 21.1425 158.554 22.0677V23.0384H148.149V20.733H154.701C154.696 20.3993 154.61 20.106 154.443 19.8533C154.282 19.5954 154.062 19.3957 153.784 19.2542C153.511 19.1075 153.2 19.0342 152.851 19.0342C152.512 19.0342 152.201 19.1075 151.918 19.2542C151.635 19.3957 151.407 19.5929 151.236 19.8457C151.069 20.0985 150.98 20.3942 150.97 20.733V23.2204C150.97 23.5945 151.049 23.9282 151.205 24.2214C151.362 24.5146 151.587 24.7447 151.88 24.9115C152.173 25.0783 152.527 25.1618 152.942 25.1618C153.23 25.1618 153.493 25.1213 153.731 25.0404C153.973 24.9595 154.181 24.8432 154.352 24.6916C154.524 24.5349 154.651 24.3478 154.732 24.1304H158.554C158.422 24.9393 158.111 25.6421 157.621 26.2386C157.131 26.8301 156.481 27.2902 155.672 27.6188C154.868 27.9424 153.928 28.1042 152.851 28.1042Z" fill="white"/>
</svg>
