<svg width="239" height="70" viewBox="0 0 239 70" fill="none" xmlns="http://www.w3.org/2000/svg">
<path d="M67.5309 28.1233C64.659 28.1233 62.1778 29.1823 60.5109 31.0723V19.375H54.8711V39.6432C54.8711 46.737 59.6306 51.5077 66.7089 51.5077C73.7872 51.5077 78.7192 46.6281 78.7192 39.6432C78.7192 32.0806 73.0896 28.1233 67.5309 28.1233ZM66.7546 46.2177C63.0784 46.2177 60.5109 43.5853 60.5109 39.8155C60.5109 36.0456 63.0784 33.4107 66.7546 33.4107C70.4307 33.4107 73.0363 36.043 73.0363 39.8155C73.0363 43.5879 70.451 46.2177 66.7546 46.2177Z" fill="#00065A"/>
<path d="M87.0598 19.375H81.4199V51.6217H87.0598V19.375Z" fill="#00065A"/>
<path d="M111.838 28.6836V40.2441C111.838 47.2974 107.718 51.5056 100.819 51.5056C93.9211 51.5056 89.8086 47.2974 89.8086 40.2441V28.6836H95.4408V40.2441C95.4408 44.0975 97.3487 46.2181 100.819 46.2181C104.29 46.2181 106.198 44.0975 106.198 40.2441V28.6836H111.838Z" fill="#00065A"/>
<path d="M138.409 39.8162C138.409 33.0416 133.411 28.124 126.528 28.124C119.591 28.124 114.561 33.0416 114.561 39.8162C114.561 46.5909 119.591 51.5059 126.528 51.5059C131.635 51.5059 135.742 48.9293 137.508 44.6097L137.785 43.9383H131.757L131.609 44.1359C130.564 45.5673 128.902 46.264 126.535 46.264C123.516 46.264 121.337 44.6781 120.591 41.9849H138.416L138.409 39.8162ZM126.528 33.3684C129.318 33.3684 131.455 34.7441 132.33 37.0876H120.761C121.649 34.7137 123.714 33.3684 126.528 33.3684Z" fill="#00065A"/>
<path d="M174.782 38.2226V51.6224H169.142V38.2226C169.142 35.0735 167.699 33.409 164.971 33.409C162.313 33.409 160.846 35.1165 160.846 38.2226V51.6224H155.206V38.2226C155.206 35.1647 153.669 33.409 150.992 33.409C148.265 33.409 146.821 35.0709 146.821 38.2226V51.6224H141.182V38.2226C141.182 31.8888 144.69 28.124 150.569 28.124C153.758 28.124 156.363 29.3908 157.992 31.709C159.616 29.3882 162.221 28.124 165.41 28.124C171.276 28.124 174.782 31.899 174.782 38.2226Z" fill="#00065A"/>
<path d="M189.362 28.2178C182.289 28.2178 177.35 33.1151 177.35 40.1253C177.35 47.6575 182.982 51.6022 188.543 51.6022C191.691 51.6022 194.343 50.3076 195.949 48.0553V51.5464H201.2V40.0721C201.2 32.9783 196.441 28.2178 189.362 28.2178ZM195.56 39.91C195.56 43.7407 193.049 46.3147 189.317 46.3147C185.585 46.3147 183.033 43.6723 183.033 39.9024C183.033 36.1325 185.618 33.4951 189.317 33.4951C193.016 33.4951 195.56 36.0717 195.56 39.9024V39.91Z" fill="#00065A"/>
<path d="M227.696 51.4524H220.828L215.14 42.8992L209.49 51.4524H202.754L211.21 39.6056L203.074 28.6836H210L215.31 36.2892L220.62 28.6836H227.376L219.196 39.6056L227.696 51.4524Z" fill="#00065A"/>
<path d="M22.0891 18.8232C21.607 18.8232 21.1275 18.8435 20.6556 18.884C20.5677 18.8917 20.4859 18.9322 20.4266 18.9975C20.3674 19.0628 20.335 19.1481 20.336 19.2362V22.9529C20.3363 23.0443 20.3556 23.1347 20.3928 23.2183C20.43 23.3018 20.4843 23.3767 20.552 23.4382C20.6198 23.4997 20.6997 23.5464 20.7865 23.5754C20.8734 23.6044 20.9653 23.615 21.0565 23.6065C21.2315 23.5913 21.4066 23.5812 21.5816 23.5736C21.7567 23.566 21.9191 23.5736 22.0891 23.5736C23.6549 23.5796 25.2043 23.8935 26.6487 24.4975C28.0931 25.1014 29.4043 25.9835 30.5073 27.0935C31.6103 28.2034 32.4836 29.5195 33.0773 30.9665C33.671 32.4134 33.9735 33.963 33.9675 35.5268C33.9615 37.0905 33.6471 38.6377 33.0423 40.0801C32.4375 41.5225 31.5542 42.8318 30.4427 43.9333C29.3312 45.0348 28.0133 45.9069 26.5643 46.4998C25.1153 47.0926 23.5636 47.3947 21.9977 47.3887C21.6806 47.3887 21.3685 47.3684 21.0565 47.3431C20.9653 47.3347 20.8734 47.3453 20.7865 47.3743C20.6997 47.4032 20.6198 47.45 20.552 47.5114C20.4843 47.5729 20.43 47.6478 20.3928 47.7314C20.3556 47.8149 20.3363 47.9053 20.336 47.9968V51.4297C20.3363 51.5982 20.4011 51.7603 20.5171 51.8827C20.6331 52.0051 20.7916 52.0787 20.9601 52.0884C21.333 52.1137 21.7212 52.1264 22.0891 52.1264C26.5111 52.1264 30.7521 50.3722 33.8789 47.2496C37.0058 44.1271 38.7625 39.892 38.7625 35.4761C38.7625 31.0601 37.0058 26.8251 33.8789 23.7025C30.7521 20.58 26.5111 18.8258 22.0891 18.8258V18.8232Z" fill="url(#paint0_linear_1136_1384)"/>
<path d="M22.0879 11.1645C21.6718 11.1645 21.2583 11.1747 20.8473 11.1949C20.7093 11.2034 20.5798 11.2643 20.4854 11.3651C20.391 11.466 20.3389 11.5991 20.3399 11.7371V14.8711C20.3404 14.9453 20.3561 15.0186 20.386 15.0865C20.4159 15.1544 20.4594 15.2155 20.5138 15.266C20.5682 15.3165 20.6324 15.3554 20.7024 15.3803C20.7724 15.4052 20.8467 15.4156 20.9208 15.4107C21.309 15.3879 21.7022 15.3778 22.0929 15.3778C22.2249 15.3778 22.3467 15.3778 22.4862 15.3778C27.7858 15.4957 32.8254 17.6941 36.5132 21.4966C40.201 25.2992 42.2399 30.3996 42.1881 35.6929C42.1364 40.9862 39.9982 46.046 36.2368 49.776C32.4754 53.5059 27.3938 55.6057 22.0929 55.6203C21.6997 55.6203 21.309 55.6203 20.9208 55.5873C20.8467 55.5818 20.7723 55.5915 20.7022 55.616C20.632 55.6404 20.5677 55.679 20.5131 55.7294C20.4586 55.7798 20.4151 55.8409 20.3853 55.9089C20.3555 55.9769 20.34 56.0502 20.3399 56.1244V59.2584C20.3396 59.3963 20.3919 59.529 20.4861 59.6298C20.5804 59.7305 20.7095 59.7916 20.8473 59.8006C21.2608 59.8208 21.6743 59.831 22.0904 59.831C25.3116 59.8638 28.5073 59.2586 31.4928 58.0503C34.4783 56.842 37.1942 55.0547 39.4837 52.7917C41.7731 50.5286 43.5905 47.8348 44.8309 44.8659C46.0712 41.8971 46.7098 38.7121 46.7098 35.4952C46.7098 32.2783 46.0712 29.0934 44.8309 26.1245C43.5905 23.1557 41.7731 20.4618 39.4837 18.1988C37.1942 15.9357 34.4783 14.1484 31.4928 12.9401C28.5073 11.7319 25.3116 11.1266 22.0904 11.1595L22.0879 11.1645Z" fill="url(#paint1_linear_1136_1384)"/>
<path d="M22.2563 26.3857C20.2267 26.3857 18.4355 27.0622 17.1467 28.2884C17.103 28.3308 17.0477 28.3593 16.9878 28.3705C16.9279 28.3817 16.8661 28.3749 16.81 28.3511C16.7539 28.3273 16.7061 28.2875 16.6726 28.2367C16.6391 28.1859 16.6213 28.1263 16.6216 28.0654V11.4962C16.6216 11.4135 16.5887 11.3343 16.5302 11.2758C16.4716 11.2174 16.3923 11.1846 16.3095 11.1846H12.6156C12.5654 11.1853 12.5161 11.1981 12.472 11.222C12.4278 11.2458 12.39 11.2799 12.3619 11.3214C12.3276 11.3733 12.3091 11.434 12.3086 11.4962V34.2067C12.4126 38.2097 14.2849 43.3071 19.2144 44.4979C19.9175 44.6657 20.6378 44.7507 21.3607 44.7512C23.5709 44.7425 25.7144 43.9951 27.4496 42.6281C28.5629 41.7586 29.4707 40.6548 30.1084 39.3953C30.7268 38.1648 31.0491 36.8072 31.0497 35.4304C31.0446 29.4842 26.6226 26.3857 22.2563 26.3857ZM22.1142 39.5854C21.2506 39.5854 20.4063 39.3296 19.6882 38.8504C18.9701 38.3711 18.4105 37.69 18.0801 36.8932C17.7497 36.0963 17.6634 35.2195 17.8321 34.3736C18.0008 33.5277 18.4169 32.7508 19.0277 32.1411C19.6386 31.5315 20.4169 31.1164 21.264 30.9484C22.1111 30.7805 22.9891 30.8672 23.7869 31.1976C24.5847 31.528 25.2664 32.0873 25.7459 32.8046C26.2253 33.522 26.481 34.3652 26.4805 35.2277C26.4798 36.3837 26.0195 37.492 25.2007 38.3092C24.382 39.1263 23.2718 39.5854 22.1142 39.5854Z" fill="#00065A"/>
<defs>
<linearGradient id="paint0_linear_1136_1384" x1="14.1126" y1="7.25518" x2="62.4987" y2="115.651" gradientUnits="userSpaceOnUse">
<stop offset="0.07" stop-color="#07FE6F"/>
<stop offset="0.11" stop-color="#06DF85"/>
<stop offset="0.17" stop-color="#05B8A2"/>
<stop offset="0.24" stop-color="#0495BB"/>
<stop offset="0.31" stop-color="#0377D0"/>
<stop offset="0.39" stop-color="#025FE1"/>
<stop offset="0.47" stop-color="#024DEF"/>
<stop offset="0.58" stop-color="#0140F8"/>
<stop offset="0.71" stop-color="#0138FD"/>
<stop offset="1" stop-color="#0136FF"/>
</linearGradient>
<linearGradient id="paint1_linear_1136_1384" x1="11.4907" y1="50.196" x2="74.9007" y2="-12.551" gradientUnits="userSpaceOnUse">
<stop offset="0.01" stop-color="#07FE6F"/>
<stop offset="0.05" stop-color="#06DF85"/>
<stop offset="0.12" stop-color="#05B8A2"/>
<stop offset="0.19" stop-color="#0495BB"/>
<stop offset="0.26" stop-color="#0377D0"/>
<stop offset="0.34" stop-color="#025FE1"/>
<stop offset="0.44" stop-color="#024DEF"/>
<stop offset="0.55" stop-color="#0140F8"/>
<stop offset="0.7" stop-color="#0138FD"/>
<stop offset="1" stop-color="#0136FF"/>
</linearGradient>
</defs>
</svg>
