<?xml version="1.0" encoding="UTF-8"?>
<svg version="1.1" xmlns="http://www.w3.org/2000/svg" width="1250" height="1250">
<path d="M0 0 C1.64251296 -0.00313914 3.28502383 -0.00759004 4.92753017 -0.0132131 C9.40429271 -0.02479472 13.88085872 -0.01795901 18.35761772 -0.00787924 C23.24199994 -0.00022241 28.1263536 -0.01006727 33.0107317 -0.01760924 C41.55918597 -0.02841439 50.10758334 -0.02813406 58.65604019 -0.02046776 C71.36810753 -0.00909861 84.08012706 -0.0149328 96.7921941 -0.02409268 C119.49875652 -0.0398757 142.20529359 -0.03852638 164.91185841 -0.02985594 C184.7829012 -0.02230561 204.65393471 -0.02034088 224.52497864 -0.02392387 C225.84370391 -0.02415303 227.16242918 -0.02438218 228.52111582 -0.02461828 C233.87441756 -0.02554973 239.2277193 -0.02650574 244.58102103 -0.02749758 C259.54455348 -0.03024823 274.50808597 -0.0319603 289.47161865 -0.03285599 C290.15295157 -0.03289692 290.83428448 -0.03293786 291.53626385 -0.03298004 C313.23772915 -0.03420738 334.93919123 -0.03082975 356.64065552 -0.02430725 C357.69603814 -0.02399113 357.69603814 -0.02399113 358.77274163 -0.02366862 C370.19765967 -0.02023402 381.62257765 -0.01657552 393.04749561 -0.0128981 C438.35651701 0.00167025 483.6655118 0.00099406 528.97453308 -0.01358986 C540.39376828 -0.0172536 551.81300349 -0.02088683 563.23223877 -0.02430725 C563.93541808 -0.0245186 564.63859739 -0.02472994 565.36308516 -0.02494769 C587.04248241 -0.03141884 608.72187745 -0.03415858 630.40127563 -0.03285599 C631.42251902 -0.03279486 631.42251902 -0.03279486 632.46439358 -0.03273249 C647.41146363 -0.03179495 662.35853343 -0.02989381 677.30560324 -0.02712448 C683.31970737 -0.02601422 689.33381151 -0.02496895 695.34791565 -0.02392387 C697.32142806 -0.02356803 697.32142806 -0.02356803 699.3348094 -0.02320499 C719.19206699 -0.01979435 739.04931427 -0.0237801 758.90657043 -0.03136253 C781.48793818 -0.03994224 804.06927663 -0.03779167 826.65064073 -0.0215203 C839.28448264 -0.01271678 851.91826112 -0.01212873 864.55210138 -0.02345882 C872.9958072 -0.0301953 881.43946227 -0.02598243 889.88316059 -0.01294452 C894.690772 -0.00582271 899.49825757 -0.00333777 904.30586493 -0.01416247 C908.68908906 -0.02393068 913.07207698 -0.01962622 917.45528425 -0.00462049 C919.0217387 -0.00162671 920.5882132 -0.00352315 922.15465151 -0.0112383 C936.89138415 -0.07860542 951.26721309 1.88487275 965.43644714 6.06502342 C966.74198547 6.44630394 966.74198547 6.44630394 968.07389832 6.83528709 C987.5851264 12.75868673 1006.12537176 22.51812399 1021.93644714 35.37752342 C1022.49042175 35.82466698 1023.04439636 36.27181053 1023.61515808 36.73250389 C1050.23540142 58.35681199 1069.60597444 86.85912909 1079.24894714 119.87752342 C1079.4792865 120.65829247 1079.70962585 121.43906151 1079.94694519 122.24349022 C1083.87903692 136.51878692 1085.38658195 150.69849407 1085.31397057 165.44107628 C1085.3171097 167.08358924 1085.32156061 168.72610011 1085.32718366 170.36860645 C1085.33876528 174.84536899 1085.33192958 179.321935 1085.32184981 183.798694 C1085.31419298 188.68307622 1085.32403784 193.56742988 1085.3315798 198.45180798 C1085.34238495 207.00026225 1085.34210462 215.54865962 1085.33443832 224.09711647 C1085.32306918 236.80918381 1085.32890336 249.52120334 1085.33806325 262.23327038 C1085.35384627 284.9398328 1085.35249695 307.64636987 1085.34382651 330.35293469 C1085.33627617 350.22397748 1085.33431145 370.09501099 1085.33789444 389.96605492 C1085.33812359 391.28478019 1085.33835275 392.60350545 1085.33858885 393.9621921 C1085.3395203 399.31549384 1085.3404763 404.66879558 1085.34146814 410.02209731 C1085.3442188 424.98562976 1085.34593087 439.94916225 1085.34682655 454.91269493 C1085.34686749 455.59402785 1085.34690843 456.27536076 1085.34695061 456.97734013 C1085.34817795 478.67880543 1085.34480031 500.38026751 1085.33827782 522.0817318 C1085.33806707 522.78532021 1085.33785632 523.48890863 1085.33763919 524.21381791 C1085.33420458 535.63873595 1085.33054608 547.06365392 1085.32686867 558.48857189 C1085.31230031 603.79759328 1085.3129765 649.10658808 1085.32756042 694.41560936 C1085.33122417 705.83484456 1085.33485739 717.25407977 1085.33827782 728.67331505 C1085.33859483 729.72808401 1085.33859483 729.72808401 1085.33891825 730.80416144 C1085.34538941 752.48355869 1085.34812914 774.16295373 1085.34682655 795.84235191 C1085.34676542 796.8635953 1085.34676542 796.8635953 1085.34670306 797.90546986 C1085.34576551 812.85253991 1085.34386438 827.79960971 1085.34109504 842.74667952 C1085.33998479 848.76078365 1085.33893951 854.77488779 1085.33789444 860.78899193 C1085.33753859 862.76250433 1085.33753859 862.76250433 1085.33717555 864.77588568 C1085.33376491 884.63314327 1085.33775066 904.49039055 1085.3453331 924.34764671 C1085.3539128 946.92901445 1085.35176223 969.51035291 1085.33549087 992.091717 C1085.32668735 1004.72555892 1085.3260993 1017.3593374 1085.33742939 1029.99317766 C1085.34416586 1038.43688348 1085.33995299 1046.88053855 1085.32691508 1055.32423687 C1085.31979327 1060.13184828 1085.31730833 1064.93933385 1085.32813303 1069.74694121 C1085.33790125 1074.13016534 1085.33359679 1078.51315325 1085.31859105 1082.89636053 C1085.31559728 1084.46281498 1085.31749371 1086.02928948 1085.32520887 1087.59572779 C1085.39257598 1102.33246043 1083.42909781 1116.70828937 1079.24894714 1130.87752342 C1078.99476013 1131.74788231 1078.74057312 1132.6182412 1078.47868347 1133.51497459 C1072.55528383 1153.02620267 1062.79584657 1171.56644804 1049.93644714 1187.37752342 C1049.48930359 1187.93149803 1049.04216003 1188.48547264 1048.58146667 1189.05623436 C1020.80780346 1223.24653861 980.85221223 1245.41002048 936.93644714 1250.37752342 C931.45800258 1250.64667101 925.98954416 1250.64880936 920.50654411 1250.63199902 C918.87186815 1250.63439306 917.23719327 1250.63766094 915.60252059 1250.64171562 C911.12423541 1250.65030178 906.64603449 1250.64652328 902.1677481 1250.64065989 C897.29035464 1250.63647866 892.41297624 1250.64389773 887.53558648 1250.6498124 C878.9916225 1250.65856777 870.44768249 1250.65988886 861.90371513 1250.65630913 C849.19818194 1250.65099986 836.49267193 1250.65709973 823.78714125 1250.66539206 C799.77376536 1250.68063361 775.76040001 1250.68233694 751.74702029 1250.67986903 C733.20248636 1250.67803636 714.65795589 1250.67979544 696.11342239 1250.68409348 C693.44910708 1250.68469588 690.78479177 1250.68529712 688.12047646 1250.68589708 C686.7845582 1250.68619877 685.44863995 1250.68650065 684.11272169 1250.68680272 C683.45052119 1250.6869524 682.78832068 1250.68710208 682.10605349 1250.6872563 C680.76658142 1250.68755983 679.42710936 1250.68786451 678.08763729 1250.68817034 C640.08704449 1250.69684186 602.08645297 1250.70148841 564.0858593 1250.69722271 C563.38241107 1250.69714465 562.67896284 1250.6970666 561.954198 1250.69698617 C554.11032842 1250.6961134 546.26645885 1250.69518414 538.42258929 1250.69423554 C537.71442849 1250.69415003 537.00626768 1250.69406452 536.27664746 1250.69397642 C530.39309604 1250.69326571 530.39309604 1250.69326571 527.68509288 1250.69293419 C482.39712482 1250.68739944 437.10917714 1250.69493824 391.82121277 1250.71370506 C380.41104067 1250.71842747 369.00086855 1250.72310806 357.59069633 1250.72754192 C356.88808032 1250.72781525 356.1854643 1250.72808857 355.46155688 1250.72837017 C333.79789379 1250.73674471 312.1342324 1250.74142144 290.4705677 1250.74224949 C289.79017265 1250.74227586 289.1097776 1250.74230222 288.40876452 1250.74232939 C273.47069388 1250.74287023 258.53262339 1250.74249757 243.5945528 1250.74128967 C237.58382403 1250.7408111 231.57309526 1250.74041542 225.56236649 1250.7400322 C223.58993119 1250.7398961 223.58993119 1250.7398961 221.57764871 1250.73975725 C201.73165541 1250.73859154 181.8856745 1250.74523764 162.0396843 1250.75584412 C139.46627748 1250.76789594 116.89289793 1250.7694553 94.31949072 1250.75705395 C81.69032648 1250.75042616 69.06122743 1250.75205461 56.4320684 1250.76564246 C47.99002999 1250.77389196 39.54804036 1250.77118287 31.1060059 1250.7596672 C26.3000763 1250.75341578 21.49427383 1250.75179708 16.68835162 1250.76353053 C-19.90407426 1250.84689269 -19.90407426 1250.84689269 -35.06355286 1247.37752342 C-36.12761105 1247.14058669 -37.19166924 1246.90364996 -38.28797162 1246.65953332 C-40.76443162 1246.08032489 -43.18918358 1245.41673764 -45.62605286 1244.69002342 C-46.49190002 1244.43583641 -47.35774719 1244.1816494 -48.24983215 1243.91975975 C-67.73845448 1237.97296212 -86.26338143 1228.22805449 -102.06355286 1215.37752342 C-102.61752747 1214.93037987 -103.17150208 1214.48323631 -103.74226379 1214.02254295 C-137.20877025 1186.8368393 -159.60086705 1148.08807968 -164.84842619 1105.03494887 C-165.34587724 1098.89001528 -165.20257367 1092.70601369 -165.19498062 1086.54444885 C-165.19663147 1084.91359331 -165.1987183 1083.28273815 -165.20120072 1081.65188366 C-165.20676155 1077.16092178 -165.20609602 1072.66997899 -165.20442313 1068.17901477 C-165.2036918 1063.29656586 -165.20871553 1058.41412232 -165.21299815 1053.5316757 C-165.22057808 1043.84361941 -165.22277121 1034.15556863 -165.22332721 1024.46750969 C-165.22424086 1012.8647544 -165.23090844 1001.2620042 -165.23767403 989.6592511 C-165.25373641 961.61483033 -165.25963759 933.57041009 -165.26442278 905.52598555 C-165.2667585 892.25955718 -165.27036113 878.99312925 -165.27411816 865.72670123 C-165.28675276 821.02763079 -165.29756616 776.32856041 -165.30095862 731.6294882 C-165.30112085 729.49335669 -165.30128641 727.35722518 -165.301453 725.22109367 C-165.3017868 720.93711111 -165.30211728 716.65312855 -165.30244756 712.36914599 C-165.30283445 707.35373738 -165.30322406 702.33832877 -165.30361862 697.32292016 C-165.30373104 695.88747427 -165.30384246 694.45202837 -165.30395288 693.01658248 C-165.30750163 646.92375964 -165.3225773 600.83095239 -165.34589062 554.7381355 C-165.36263713 521.6151669 -165.37810935 488.49220125 -165.38262558 455.36922836 C-165.38271907 454.68772825 -165.38281255 454.00622813 -165.38290887 453.30407649 C-165.38492814 438.34177897 -165.386084 423.37948149 -165.38643746 408.41718383 C-165.38657362 403.06300301 -165.38678262 397.7088222 -165.38703071 392.35464138 C-165.387123 390.35779658 -165.38720756 388.36095178 -165.3872921 386.36410698 C-165.38844273 365.16789896 -165.39946571 343.97170708 -165.41401016 322.77550451 C-165.42837692 301.46981788 -165.43161113 280.16415195 -165.42357019 258.85846181 C-165.41911478 246.20244977 -165.42297103 233.54650451 -165.43880869 220.89050125 C-165.44856442 212.43166899 -165.44737474 203.97288348 -165.43737246 195.51405164 C-165.43198478 190.6976193 -165.43125638 185.88131513 -165.44388118 181.06489344 C-165.45529536 176.67354914 -165.45261402 172.28243622 -165.43921411 167.89109958 C-165.43680081 166.32167875 -165.43928986 164.75223964 -165.44761059 163.18283901 C-165.52058306 148.43654141 -163.55898548 134.0561873 -159.37605286 119.87752342 C-159.12186584 119.00716454 -158.86767883 118.13680565 -158.60578918 117.24007225 C-152.68238955 97.72884417 -142.92295229 79.18859881 -130.06355286 63.37752342 C-129.6164093 62.82354881 -129.16926575 62.2695742 -128.70857239 61.69881248 C-107.08426429 35.07856915 -78.58194719 15.70799613 -45.56355286 6.06502342 C-44.78278381 5.83468407 -44.00201477 5.60434471 -43.19758606 5.36702538 C-28.92228936 1.43493364 -14.74258221 -0.07261138 0 0 Z " fill="#C32126" transform="translate(165.0635528564453,-0.37752342224121094)"/>
<path d="M0 0 C108.24 0 216.48 0 328 0 C328 53.46 328 106.92 328 162 C397.63 162 467.26 162 539 162 C539 253.41 539 344.82 539 439 C511.32125 439.020625 483.6425 439.04125 455.125 439.0625 C442.05801514 439.07615601 442.05801514 439.07615601 428.72705078 439.09008789 C418.01733398 439.09460449 418.01733398 439.09460449 412.98971558 439.09544373 C409.50883332 439.09636827 406.02796662 439.10008712 402.54708862 439.10557556 C398.0850524 439.11251609 393.62303827 439.11447632 389.16099715 439.11307228 C387.53715635 439.11336518 385.91331465 439.1152993 384.28947854 439.11921513 C379.19161944 439.13092147 374.09701108 439.09457245 369 439 C368.19864168 438.98708443 367.39728335 438.97416887 366.57164145 438.96086192 C364.11629828 438.91112036 361.6636627 438.831494 359.20944214 438.74290466 C358.46080717 438.72924584 357.71217221 438.71558703 356.94085133 438.7015143 C352.03796217 438.48081283 349.48001702 437.44906004 346 434 C344.55297852 432.31518555 344.55297852 432.31518555 343.37890625 430.63671875 C342.92604248 430.00507812 342.47317871 429.3734375 342.0065918 428.72265625 C341.5300415 428.05105469 341.05349121 427.37945313 340.5625 426.6875 C334.83238157 418.84091583 328.49963403 411.83084017 321.76367188 404.84472656 C320.08599798 403.08995027 318.43671442 401.3135451 316.796875 399.5234375 C310.6081924 392.78888323 304.26328969 386.23322708 297.77734375 379.78515625 C297.13238449 379.14348511 296.48742523 378.50181396 295.82292175 377.84069824 C292.55326114 374.59051388 289.27652627 371.34786412 285.98999023 368.11474609 C284.76143877 366.89823035 283.5329999 365.68160088 282.3046875 364.46484375 C281.74373886 363.91740005 281.18279022 363.36995636 280.60484314 362.80592346 C276.91402057 359.13821239 273.92777385 355.30409231 271 351 C290.60446754 336.89716957 314.62458279 328.27082035 336.70333862 318.81521606 C349.54981455 313.30282782 362.12427751 307.29103225 374.65698242 301.10058594 C377 300 377 300 380 299 C378.3631882 297.12278147 376.72399893 295.24771263 375.08203125 293.375 C373.65977421 291.75261299 372.24063931 290.12748502 370.82421875 288.5 C370.11910156 287.695625 369.41398437 286.89125 368.6875 286.0625 C368.03136719 285.31097656 367.37523437 284.55945313 366.69921875 283.78515625 C364.65074399 281.63308046 363.65749792 281.04798636 360.69288635 280.83161926 C352.43833561 280.77522109 344.54721749 281.73332255 336.40234375 283.01171875 C335.01211131 283.22324236 333.6217524 283.43393619 332.23127747 283.64385986 C329.30561473 284.08714457 326.38083235 284.53569547 323.45666504 284.98873901 C318.90183112 285.69430718 314.34517946 286.38756511 309.78808594 287.07836914 C305.28007509 287.76216422 300.77212508 288.44631839 296.26480103 289.1346283 C285.43399343 290.78829665 274.59812601 292.40121258 263.75 293.9375 C263.07689789 294.03287048 262.40379578 294.12824097 261.71029663 294.22650146 C257.47455884 294.82516611 253.2375813 295.41454469 249 296 C247.84242188 296.16081055 246.68484375 296.32162109 245.4921875 296.48730469 C242.2456451 296.93564554 238.99818076 297.37620436 235.75 297.8125 C234.3902002 297.99897095 234.3902002 297.99897095 233.00292969 298.18920898 C231.38216418 298.40178127 229.75868476 298.59502353 228.1328125 298.76416016 C226.2392089 298.97354902 224.3590229 299.29719919 222.484375 299.63671875 C216.63488746 298.56781015 213.45582945 294.21830154 209.5 290 C208.27603516 288.74123047 208.27603516 288.74123047 207.02734375 287.45703125 C202.76446099 283.0436133 198.67087887 278.5114753 194.65771484 273.87158203 C191.91321015 270.77299985 189.00040213 267.85164993 186.0625 264.9375 C185.44842285 264.32680664 184.8343457 263.71611328 184.20166016 263.08691406 C179.94214351 258.87583942 175.5979087 254.84039884 171 251 C169.65035156 249.81664062 169.65035156 249.81664062 168.2734375 248.609375 C156.13406606 238.13250146 145.81480748 231.99731317 129.734375 231.5390625 C126.19434902 232.13580974 125.0726974 233.09145959 123 236 C120.58821703 247.97574994 126.09106725 258.65056154 132.296875 268.5234375 C141.93006091 282.5313271 154.61666656 295.97438516 167.5 307.0625 C171.71116821 310.699418 175.79702094 314.46530688 179.875 318.25 C180.54208984 318.86496338 181.20917969 319.47992676 181.89648438 320.11352539 C182.52619141 320.69996826 183.15589844 321.28641113 183.8046875 321.890625 C184.65522705 322.68001465 184.65522705 322.68001465 185.52294922 323.48535156 C188.26360304 326.29576748 188.98732262 327.75625861 189.19363403 331.72290039 C189.08920763 335.6909766 188.5699619 339.51858807 187.90185547 343.43359375 C187.72596453 344.48123665 187.72596453 344.48123665 187.54652023 345.55004406 C187.15945248 347.84693245 186.76328585 350.1421533 186.3671875 352.4375 C186.09109451 354.06705385 185.81566693 355.69672057 185.54086304 357.32649231 C184.95900105 360.77167343 184.37356999 364.21621989 183.78527832 367.66030884 C182.41840434 375.66757465 181.07491667 383.67877467 179.73100281 391.68992043 C179.43639555 393.44600241 179.14160594 395.20205382 178.84663391 396.95807457 C176.6939698 409.77518469 174.55863411 422.59412503 172.60943604 435.4440918 C172.37510601 436.9881472 172.13805439 438.53179277 171.89788818 440.07495117 C170.70468161 447.76715477 169.76529164 455.46779117 169.1796875 463.23046875 C169.11638245 463.94153275 169.05307739 464.65259674 168.987854 465.38520813 C168.71357309 469.69332017 169.08046321 472.16733339 171.875 475.5 C173.22277115 476.6980188 174.60069585 477.8625977 176 479 C177.65759155 480.65497292 179.30337629 482.32185077 180.9375 484 C182.28916504 485.33586929 183.64242826 486.6701338 185 488 C188.31695891 485.22204692 190.04304997 481.52206687 192 477.75 C192.39461426 476.99605957 192.78922852 476.24211914 193.19580078 475.46533203 C196.68214687 468.73923174 199.95950499 461.91878365 203.20239258 455.07275391 C208.34788577 444.21773389 213.62595154 433.42796288 218.90447998 422.637146 C220.08704417 420.21951425 221.26853381 417.80136254 222.44921875 415.3828125 C222.83045898 414.60202835 223.21169922 413.8212442 223.60449219 413.01679993 C226.59151827 406.88082027 229.50657437 400.71256166 232.3658905 394.51602173 C234.58491923 389.74413495 237.04065463 385.34653852 240 381 C243.54120058 382.50910012 245.81604365 384.57119314 248.51953125 387.2890625 C249.37740234 388.14886719 250.23527344 389.00867188 251.11914062 389.89453125 C252.00794922 390.79558594 252.89675781 391.69664062 253.8125 392.625 C254.68970703 393.50285156 255.56691406 394.38070313 256.47070312 395.28515625 C260.20354381 399.04312451 263.88886208 402.80200068 267.328125 406.83203125 C272.00124402 412.26719859 277.12224436 417.27123323 282.19702148 422.32739258 C283.933936 424.058947 285.66543889 425.79578359 287.39648438 427.53320312 C294.4325041 434.57477345 301.57387522 441.28409531 309.359375 447.5 C310.08253906 448.0775 310.80570313 448.655 311.55078125 449.25 C313.02651384 450.42429521 314.50840145 451.59089365 315.99609375 452.75 C322.49396317 457.97629354 325.8880755 462.52784915 327 471 C328.4338514 487.42584338 328.1492951 503.98893821 328.16866493 520.46243477 C328.17469756 525.1701365 328.19134423 529.87776742 328.21000671 534.58543396 C328.21634 536.21268937 328.22266567 537.83994481 328.22898388 539.46720028 C328.23214969 540.28080859 328.2353155 541.0944169 328.23857725 541.93268001 C328.28028551 552.853139 328.31363731 563.77355817 328.32592773 574.6940918 C328.33436616 582.11699603 328.35704966 589.53971644 328.3952834 596.96252865 C328.41481559 600.86637969 328.42752546 604.76995761 328.42244911 608.67386055 C327.87445759 646.04441851 327.87445759 646.04441851 345 678 C364.71047989 694.9278239 393.76688754 692.4710439 418.02909851 692.50647736 C421.87420823 692.51481839 425.71915751 692.5392093 429.56420898 692.56213379 C440.75106901 692.61974864 451.9380475 692.65213954 463.125 692.6875 C488.16375 692.790625 513.2025 692.89375 539 693 C539 772.86 539 852.72 539 935 C462.49591208 935.12099405 462.49591208 935.12099405 430.3671875 935.14648438 C423.01529927 935.15235653 415.66341124 935.15841756 408.31152344 935.16479492 C407.39029355 935.16558617 406.46906367 935.16637741 405.51991773 935.16719264 C390.71633064 935.18018196 375.91277911 935.20380047 361.10921299 935.23145839 C345.87649353 935.25967724 330.64379246 935.27621076 315.41104794 935.28226548 C306.03856822 935.28634808 296.66618899 935.2991625 287.29374027 935.3237494 C280.83561904 935.33981098 274.37754848 935.34435516 267.9194088 935.34050413 C264.21318829 935.33861368 260.50714121 935.34116057 256.80095291 935.35761642 C186.9822691 935.6514792 116.75810286 922.6876018 63.59765625 874.58203125 C11.66493935 822.96169159 -0.05380323 745.0825642 -0.33191621 675.05636954 C-0.35472784 665.0902759 -0.34188129 655.12447201 -0.31061504 645.15843319 C-0.28874095 637.99293911 -0.28462592 630.82746247 -0.2812262 623.66193976 C-0.27471925 610.89162111 -0.25491781 598.12136115 -0.22631836 585.35107422 C-0.19862635 572.97282187 -0.17750228 560.59458575 -0.16479492 548.21630859 C-0.16399093 547.44086972 -0.16318694 546.66543084 -0.16235858 545.86649382 C-0.15611744 539.79876895 -0.15024767 533.73104374 -0.14449489 527.6633184 C-0.11638005 498.10882501 -0.05598225 468.55447915 0 439 C-37.29 439 -74.58 439 -113 439 C-113.60470104 383.74544221 -113.60470104 383.74544221 -113.765625 365.046875 C-113.77572853 363.87406731 -113.78583206 362.70125961 -113.79624176 361.49291229 C-113.9989632 337.69918336 -114.17345107 313.90549262 -114.23217773 290.1109314 C-114.24245617 286.10128655 -114.25980683 282.0917717 -114.28344727 278.08218384 C-114.31084475 273.35951225 -114.3231587 268.63703256 -114.32407379 263.91428375 C-114.32671134 262.20258261 -114.33430352 260.4908796 -114.3476181 258.77922821 C-114.45292782 244.4734016 -113.28931296 230.55979178 -107.375 217.3125 C-106.85123779 216.11717651 -106.85123779 216.11717651 -106.31689453 214.89770508 C-98.61412082 197.91495565 -85.5488625 182.84508168 -69 174 C-67.49953125 173.18789063 -67.49953125 173.18789063 -65.96875 172.359375 C-44.2348755 161.05336958 -26.04936091 163 0 163 C0 109.21 0 55.42 0 0 Z " fill="#FEFEFE" transform="translate(390,193)"/>
</svg>
