<svg width="26" height="26" viewBox="0 0 26 26" fill="none" xmlns="http://www.w3.org/2000/svg">
<path d="M13 26C5.8214 26 0 20.1786 0 13C0 5.8214 5.8214 0 13 0C20.1786 0 26 5.8214 26 13C26 20.1786 20.1786 26 13 26Z" fill="#2AB41E"/>
<path fill-rule="evenodd" clip-rule="evenodd" d="M19.0802 6.9472C17.4682 5.3326 15.3206 4.4434 13.0352 4.4408C8.32659 4.4408 4.49159 8.2732 4.49159 12.9844C4.49159 14.4898 4.88419 15.9614 5.63299 17.2562L4.42139 21.684L8.95059 20.4958C10.1986 21.177 11.6026 21.5358 13.0326 21.5358H13.0352C17.7438 21.5358 21.5762 17.7034 21.5788 12.9922C21.5814 10.7094 20.6948 8.5618 19.0802 6.9472ZM13.0378 20.0928H13.0352C11.7612 20.0928 10.5106 19.7496 9.42119 19.1022L9.16119 18.9488L6.47279 19.6534L7.19039 17.0326L7.02139 16.7648C6.31159 15.6338 5.93459 14.3286 5.93459 12.9844C5.93719 9.0688 9.12219 5.8838 13.0404 5.8838C14.9384 5.8838 16.7194 6.6248 18.061 7.9664C19.4026 9.308 20.141 11.0942 20.1384 12.9896C20.1384 16.9078 16.9508 20.0928 13.0378 20.0928ZM16.9326 14.7732C16.7194 14.6666 15.669 14.1492 15.474 14.079C15.279 14.0088 15.136 13.9724 14.993 14.1856C14.85 14.3988 14.4418 14.8798 14.317 15.0228C14.1922 15.1658 14.0674 15.184 13.8542 15.0774C13.641 14.9708 12.952 14.7446 12.1382 14.0166C11.5038 13.4498 11.0748 12.7504 10.95 12.5372C10.8252 12.324 10.937 12.207 11.0436 12.1004C11.1398 12.0042 11.2568 11.8508 11.3634 11.726C11.47 11.6012 11.5064 11.5128 11.5766 11.3698C11.6468 11.2268 11.613 11.102 11.5584 10.9954C11.5038 10.8888 11.0774 9.8384 10.9006 9.4094C10.7264 8.9934 10.5522 9.0506 10.4196 9.0428C10.2948 9.0376 10.1518 9.035 10.0114 9.035C9.86839 9.035 9.63699 9.0896 9.44199 9.3028C9.24699 9.516 8.69579 10.0334 8.69579 11.0838C8.69579 12.1342 9.46019 13.1508 9.56679 13.2912C9.67339 13.4342 11.0722 15.5896 13.2146 16.5152C13.7242 16.7362 14.122 16.8662 14.4314 16.965C14.9436 17.1288 15.409 17.1054 15.7756 17.0508C16.1864 16.9884 17.0392 16.5334 17.216 16.0368C17.3928 15.5376 17.3928 15.1112 17.3408 15.0228C17.2888 14.9344 17.1458 14.8824 16.9326 14.7732Z" fill="white"/>
</svg>
